{
  "accessors": [
    {
      "bufferView": 2,
      "componentType": 5126,
      "count": 8,
      "max": [
        2.204963445663452,
        2.204963445663452,
        0.4856169819831848
      ],
      "min": [
        -2.204963445663452,
        -2.204963445663452,
        -0.4856169819831848
      ],
      "type": "VEC3"
    },
    {
      "bufferView": 2,
      "byteOffset": 96,
      "componentType": 5126,
      "count": 8,
      "type": "VEC3"
    },
    {
      "bufferView": 1,
      "componentType": 5126,
      "count": 8,
      "type": "VEC2"
    },
    {
      "bufferView": 0,
      "componentType": 5125,
      "count": 12,
      "type": "SCALAR"
    },
    {
      "bufferView": 2,
      "byteOffset": 192,
      "componentType": 5126,
      "count": 8,
      "max": [
        2.204963445663452,
        2.204963445663452,
        0.4856169819831848
      ],
      "min": [
        -2.204963445663452,
        -2.204963445663452,
        -0.4856169819831848
      ],
      "type": "VEC3"
    },
    {
      "bufferView": 2,
      "byteOffset": 288,
      "componentType": 5126,
      "count": 8,
      "type": "VEC3"
    },
    {
      "bufferView": 1,
      "byteOffset": 64,
      "componentType": 5126,
      "count": 8,
      "type": "VEC2"
    },
    {
      "bufferView": 0,
      "byteOffset": 48,
      "componentType": 5125,
      "count": 12,
      "type": "SCALAR"
    },
    {
      "bufferView": 2,
      "byteOffset": 384,
      "componentType": 5126,
      "count": 4,
      "max": [
        2.204963445663452,
        2.204963445663452,
        -0.4856169819831848
      ],
      "min": [
        -2.204963445663452,
        -2.204963445663452,
        -0.4856169819831848
      ],
      "type": "VEC3"
    },
    {
      "bufferView": 2,
      "byteOffset": 432,
      "componentType": 5126,
      "count": 4,
      "type": "VEC3"
    },
    {
      "bufferView": 1,
      "byteOffset": 128,
      "componentType": 5126,
      "count": 4,
      "type": "VEC2"
    },
    {
      "bufferView": 0,
      "byteOffset": 96,
      "componentType": 5125,
      "count": 6,
      "type": "SCALAR"
    },
    {
      "bufferView": 2,
      "byteOffset": 480,
      "componentType": 5126,
      "count": 4,
      "max": [
        2.204963445663452,
        2.204963445663452,
        0.4856169819831848
      ],
      "min": [
        -2.204963445663452,
        -2.204963445663452,
        0.4856169819831848
      ],
      "type": "VEC3"
    },
    {
      "bufferView": 2,
      "byteOffset": 528,
      "componentType": 5126,
      "count": 4,
      "type": "VEC3"
    },
    {
      "bufferView": 1,
      "byteOffset": 160,
      "componentType": 5126,
      "count": 4,
      "type": "VEC2"
    },
    {
      "bufferView": 0,
      "byteOffset": 120,
      "componentType": 5125,
      "count": 6,
      "type": "SCALAR"
    },
    {
      "bufferView": 2,
      "byteOffset": 576,
      "componentType": 5126,
      "count": 367,
      "max": [
        0.022048428654670715,
        0.2253682017326355,
        0.17788024246692657
      ],
      "min": [
        -0.03044780343770981,
        -0.22041606903076172,
        -0.14625807106494904
      ],
      "type": "VEC3"
    },
    {
      "bufferView": 2,
      "byteOffset": 4980,
      "componentType": 5126,
      "count": 367,
      "type": "VEC3"
    },
    {
      "bufferView": 1,
      "byteOffset": 192,
      "componentType": 5126,
      "count": 367,
      "type": "VEC2"
    },
    {
      "bufferView": 0,
      "byteOffset": 144,
      "componentType": 5125,
      "count": 648,
      "type": "SCALAR"
    },
    {
      "bufferView": 2,
      "byteOffset": 9384,
      "componentType": 5126,
      "count": 371,
      "max": [
        0.026248106732964516,
        0.32981860637664795,
        0.1639387309551239
      ],
      "min": [
        -0.026248129084706306,
        -0.31859496235847473,
        -0.11968229711055756
      ],
      "type": "VEC3"
    },
    {
      "bufferView": 2,
      "byteOffset": 13836,
      "componentType": 5126,
      "count": 371,
      "type": "VEC3"
    },
    {
      "bufferView": 1,
      "byteOffset": 3128,
      "componentType": 5126,
      "count": 371,
      "type": "VEC2"
    },
    {
      "bufferView": 0,
      "byteOffset": 2736,
      "componentType": 5125,
      "count": 678,
      "type": "SCALAR"
    },
    {
      "bufferView": 2,
      "byteOffset": 18288,
      "componentType": 5126,
      "count": 321,
      "max": [
        0.026248108595609665,
        0.22890770435333252,
        0.2054348886013031
      ],
      "min": [
        -0.02624812349677086,
        -0.2574024200439453,
        -0.1187034398317337
      ],
      "type": "VEC3"
    },
    {
      "bufferView": 2,
      "byteOffset": 22140,
      "componentType": 5126,
      "count": 321,
      "type": "VEC3"
    },
    {
      "bufferView": 1,
      "byteOffset": 6096,
      "componentType": 5126,
      "count": 321,
      "type": "VEC2"
    },
    {
      "bufferView": 0,
      "byteOffset": 5448,
      "componentType": 5125,
      "count": 588,
      "type": "SCALAR"
    },
    {
      "bufferView": 2,
      "byteOffset": 25992,
      "componentType": 5126,
      "count": 340,
      "max": [
        0.026248110458254814,
        0.22083163261413574,
        0.20395953953266144
      ],
      "min": [
        -0.026248125359416008,
        -0.26547855138778687,
        -0.12017880380153656
      ],
      "type": "VEC3"
    },
    {
      "bufferView": 2,
      "byteOffset": 30072,
      "componentType": 5126,
      "count": 340,
      "type": "VEC3"
    },
    {
      "bufferView": 1,
      "byteOffset": 8664,
      "componentType": 5126,
      "count": 340,
      "type": "VEC2"
    },
    {
      "bufferView": 0,
      "byteOffset": 7800,
      "componentType": 5125,
      "count": 573,
      "type": "SCALAR"
    },
    {
      "bufferView": 2,
      "byteOffset": 34152,
      "componentType": 5126,
      "count": 387,
      "max": [
        0.026248101145029068,
        0.15346282720565796,
        0.209438294172287
      ],
      "min": [
        -0.026248125359416008,
        -0.17074395716190338,
        -0.11470003426074982
      ],
      "type": "VEC3"
    },
    {
      "bufferView": 2,
      "byteOffset": 38796,
      "componentType": 5126,
      "count": 387,
      "type": "VEC3"
    },
    {
      "bufferView": 1,
      "byteOffset": 11384,
      "componentType": 5126,
      "count": 387,
      "type": "VEC2"
    },
    {
      "bufferView": 0,
      "byteOffset": 10092,
      "componentType": 5125,
      "count": 645,
      "type": "SCALAR"
    },
    {
      "bufferView": 2,
      "byteOffset": 43440,
      "componentType": 5126,
      "count": 334,
      "max": [
        0.026248103007674217,
        0.16519412398338318,
        0.18885160982608795
      ],
      "min": [
        -0.02624812163412571,
        -0.15901267528533936,
        -0.13528671860694885
      ],
      "type": "VEC3"
    },
    {
      "bufferView": 2,
      "byteOffset": 47448,
      "componentType": 5126,
      "count": 334,
      "type": "VEC3"
    },
    {
      "bufferView": 1,
      "byteOffset": 14480,
      "componentType": 5126,
      "count": 334,
      "type": "VEC2"
    },
    {
      "bufferView": 0,
      "byteOffset": 12672,
      "componentType": 5125,
      "count": 567,
      "type": "SCALAR"
    },
    {
      "bufferView": 2,
      "byteOffset": 51456,
      "componentType": 5126,
      "count": 368,
      "max": [
        0.026248108595609665,
        0.22739489376544952,
        0.15435157716274261
      ],
      "min": [
        -0.026248125359416008,
        -0.21838943660259247,
        -0.1697867512702942
      ],
      "type": "VEC3"
    },
    {
      "bufferView": 2,
      "byteOffset": 55872,
      "componentType": 5126,
      "count": 368,
      "type": "VEC3"
    },
    {
      "bufferView": 1,
      "byteOffset": 17152,
      "componentType": 5126,
      "count": 368,
      "type": "VEC2"
    },
    {
      "bufferView": 0,
      "byteOffset": 14940,
      "componentType": 5125,
      "count": 624,
      "type": "SCALAR"
    },
    {
      "bufferView": 2,
      "byteOffset": 60288,
      "componentType": 5126,
      "count": 248,
      "max": [
        0.02417644113302231,
        0.21534335613250732,
        0.13532523810863495
      ],
      "min": [
        -0.07408903539180756,
        -0.3293510973453522,
        -0.18827320635318756
      ],
      "type": "VEC3"
    },
    {
      "bufferView": 2,
      "byteOffset": 63264,
      "componentType": 5126,
      "count": 248,
      "type": "VEC3"
    },
    {
      "bufferView": 1,
      "byteOffset": 20096,
      "componentType": 5126,
      "count": 248,
      "type": "VEC2"
    },
    {
      "bufferView": 0,
      "byteOffset": 17436,
      "componentType": 5125,
      "count": 672,
      "type": "SCALAR"
    },
    {
      "bufferView": 2,
      "byteOffset": 66240,
      "componentType": 5126,
      "count": 120,
      "max": [
        0.014564826153218746,
        0.018121300265192986,
        0.11547201871871948
      ],
      "min": [
        -0.02840139903128147,
        -0.02201865054666996,
        -0.11324130743741989
      ],
      "type": "VEC3"
    },
    {
      "bufferView": 2,
      "byteOffset": 67680,
      "componentType": 5126,
      "count": 120,
      "type": "VEC3"
    },
    {
      "bufferView": 1,
      "byteOffset": 22080,
      "componentType": 5126,
      "count": 120,
      "type": "VEC2"
    },
    {
      "bufferView": 0,
      "byteOffset": 20124,
      "componentType": 5125,
      "count": 342,
      "type": "SCALAR"
    }
  ],
  "asset": {
    "generator": "fab-model-conversion",
    "version": "2.0"
  },
  "bufferViews": [
    {
      "buffer": 0,
      "byteLength": 21492,
      "target": 34963
    },
    {
      "buffer": 0,
      "byteLength": 23040,
      "byteOffset": 21492,
      "byteStride": 8,
      "target": 34962
    },
    {
      "buffer": 0,
      "byteLength": 69120,
      "byteOffset": 44532,
      "byteStride": 12,
      "target": 34962
    }
  ],
  "buffers": [
    {
      "byteLength": 113652,
      "uri": "scene.bin"
    }
  ],
  "extensionsUsed": [
    "KHR_materials_emissive_strength"
  ],
  "images": [
    {
      "uri": "textures/sides_baseColor.jpeg"
    },
    {
      "uri": "textures/front_nd_back_baseColor.jpeg"
    },
    {
      "uri": "textures/buttom_baseColor.png"
    },
    {
      "uri": "textures/material_baseColor.png"
    }
  ],
  "materials": [
    {
      "doubleSided": true,
      "name": "sides",
      "pbrMetallicRoughness": {
        "baseColorTexture": {
          "index": 0
        },
        "metallicFactor": 0.0,
        "roughnessFactor": 0.8211145618000169
      }
    },
    {
      "doubleSided": true,
      "name": "front_nd_back",
      "pbrMetallicRoughness": {
        "baseColorTexture": {
          "index": 1
        },
        "metallicFactor": 0.0,
        "roughnessFactor": 0.8211145618000169
      }
    },
    {
      "doubleSided": true,
      "name": "buttom",
      "pbrMetallicRoughness": {
        "baseColorTexture": {
          "index": 2
        },
        "metallicFactor": 0.0,
        "roughnessFactor": 0.8211145618000169
      }
    },
    {
      "doubleSided": true,
      "name": "material",
      "pbrMetallicRoughness": {
        "baseColorTexture": {
          "index": 3
        },
        "metallicFactor": 0.0,
        "roughnessFactor": 0.8211145618000169
      }
    },
    {
      "doubleSided": true,
      "emissiveFactor": [
        0.0,
        0.147029,
        0.00749891
      ],
      "extensions": {
        "KHR_materials_emissive_strength": {
          "emissiveStrength": 5
        }
      },
      "name": "alien_color",
      "pbrMetallicRoughness": {
        "baseColorFactor": [
          0.0,
          0.14791,
          0.00763428,
          1.0
        ],
        "metallicFactor": 0.0,
        "roughnessFactor": 0.9762224520707778
      }
    }
  ],
  "meshes": [
    {
      "name": "space invaders box_sides_0",
      "primitives": [
        {
          "attributes": {
            "NORMAL": 1,
            "POSITION": 0,
            "TEXCOORD_0": 2
          },
          "indices": 3,
          "material": 0,
          "mode": 4
        }
      ]
    },
    {
      "name": "space invaders box_front nd back_0",
      "primitives": [
        {
          "attributes": {
            "NORMAL": 5,
            "POSITION": 4,
            "TEXCOORD_0": 6
          },
          "indices": 7,
          "material": 1,
          "mode": 4
        }
      ]
    },
    {
      "name": "space invaders box_buttom_0",
      "primitives": [
        {
          "attributes": {
            "NORMAL": 9,
            "POSITION": 8,
            "TEXCOORD_0": 10
          },
          "indices": 11,
          "material": 2,
          "mode": 4
        }
      ]
    },
    {
      "name": "space invaders box_top_0",
      "primitives": [
        {
          "attributes": {
            "NORMAL": 13,
            "POSITION": 12,
            "TEXCOORD_0": 14
          },
          "indices": 15,
          "material": 3,
          "mode": 4
        }
      ]
    },
    {
      "name": "alien1_alien color_0",
      "primitives": [
        {
          "attributes": {
            "NORMAL": 17,
            "POSITION": 16,
            "TEXCOORD_0": 18
          },
          "indices": 19,
          "material": 4,
          "mode": 4
        }
      ]
    },
    {
      "name": "alien2_alien color_0",
      "primitives": [
        {
          "attributes": {
            "NORMAL": 21,
            "POSITION": 20,
            "TEXCOORD_0": 22
          },
          "indices": 23,
          "material": 4,
          "mode": 4
        }
      ]
    },
    {
      "name": "alien3_alien color_0",
      "primitives": [
        {
          "attributes": {
            "NORMAL": 25,
            "POSITION": 24,
            "TEXCOORD_0": 26
          },
          "indices": 27,
          "material": 4,
          "mode": 4
        }
      ]
    },
    {
      "name": "alien4_alien color_0",
      "primitives": [
        {
          "attributes": {
            "NORMAL": 29,
            "POSITION": 28,
            "TEXCOORD_0": 30
          },
          "indices": 31,
          "material": 4,
          "mode": 4
        }
      ]
    },
    {
      "name": "alien5_alien color_0",
      "primitives": [
        {
          "attributes": {
            "NORMAL": 33,
            "POSITION": 32,
            "TEXCOORD_0": 34
          },
          "indices": 35,
          "material": 4,
          "mode": 4
        }
      ]
    },
    {
      "name": "alien6_alien color_0",
      "primitives": [
        {
          "attributes": {
            "NORMAL": 37,
            "POSITION": 36,
            "TEXCOORD_0": 38
          },
          "indices": 39,
          "material": 4,
          "mode": 4
        }
      ]
    },
    {
      "name": "alien7_alien color_0",
      "primitives": [
        {
          "attributes": {
            "NORMAL": 41,
            "POSITION": 40,
            "TEXCOORD_0": 42
          },
          "indices": 43,
          "material": 4,
          "mode": 4
        }
      ]
    },
    {
      "name": "player_alien color_0",
      "primitives": [
        {
          "attributes": {
            "NORMAL": 45,
            "POSITION": 44,
            "TEXCOORD_0": 46
          },
          "indices": 47,
          "material": 4,
          "mode": 4
        }
      ]
    },
    {
      "name": "bullet_alien color_0",
      "primitives": [
        {
          "attributes": {
            "NORMAL": 49,
            "POSITION": 48,
            "TEXCOORD_0": 50
          },
          "indices": 51,
          "material": 4,
          "mode": 4
        }
      ]
    }
  ],
  "nodes": [
    {
      "children": [
        1
      ],
      "matrix": [
        1.0,
        0.0,
        0.0,
        0.0,
        0.0,
        2.220446049250313e-16,
        -1.0,
        0.0,
        0.0,
        1.0,
        2.220446049250313e-16,
        0.0,
        0.0,
        0.0,
        0.0,
        1.0
      ],
      "name": "Sketchfab_model"
    },
    {
      "children": [
        2
      ],
      "matrix": [
        0.009999999776482582,
        0.0,
        0.0,
        0.0,
        0.0,
        0.0,
        0.009999999776482582,
        0.0,
        0.0,
        -0.009999999776482582,
        0.0,
        0.0,
        0.0,
        0.0,
        0.0,
        1.0
      ],
      "name": "e4fa986fd8cf455394e77b6c40676eb5.fbx"
    },
    {
      "children": [
        3,
        8,
        10,
        12,
        14,
        16,
        18,
        20,
        22,
        24
      ],
      "name": "RootNode"
    },
    {
      "children": [
        4,
        5,
        6,
        7
      ],
      "matrix": [
        100.0,
        0.0,
        0.0,
        0.0,
        0.0,
        -1.629206793918314e-05,
        -99.99999999999868,
        0.0,
        0.0,
        99.99999999999868,
        -1.629206793918314e-05,
        0.0,
        0.0,
        47.25115966796875,
        0.0,
        1.0
      ],
      "name": "space invaders box"
    },
    {
      "mesh": 0,
      "name": "space invaders box_sides_0"
    },
    {
      "mesh": 1,
      "name": "space invaders box_front nd back_0"
    },
    {
      "mesh": 2,
      "name": "space invaders box_buttom_0"
    },
    {
      "mesh": 3,
      "name": "space invaders box_top_0"
    },
    {
      "children": [
        9
      ],
      "matrix": [
        100.0,
        0.0,
        0.0,
        0.0,
        -0.0,
        -1.629206793918314e-05,
        -99.99999999999868,
        0.0,
        0.0,
        99.99999999999868,
        -1.629206793918314e-05,
        0.0,
        -2.8076841831207275,
        321.1502990722656,
        79.33503723144531,
        1.0
      ],
      "name": "alien1"
    },
    {
      "mesh": 4,
      "name": "alien1_alien color_0"
    },
    {
      "children": [
        11
      ],
      "matrix": [
        288.4078063964844,
        0.0,
        0.0,
        0.0,
        -0.0,
        -4.6987595760023016e-05,
        -288.40780639648057,
        0.0,
        0.0,
        288.40780639648057,
        -4.6987595760023016e-05,
        0.0,
        -2.624805212020874,
        446.9875793457031,
        0.6901383399963379,
        1.0
      ],
      "name": "alien2"
    },
    {
      "mesh": 5,
      "name": "alien2_alien color_0"
    },
    {
      "children": [
        13
      ],
      "matrix": [
        100.0,
        0.0,
        0.0,
        0.0,
        -0.0,
        -1.629206793918314e-05,
        -99.99999999999868,
        0.0,
        0.0,
        99.99999999999868,
        -1.629206793918314e-05,
        0.0,
        -2.6248083114624023,
        370.44036865234375,
        76.98448181152344,
        1.0
      ],
      "name": "alien3"
    },
    {
      "mesh": 6,
      "name": "alien3_alien color_0"
    },
    {
      "children": [
        15
      ],
      "matrix": [
        100.0,
        0.0,
        0.0,
        0.0,
        -0.0,
        -1.629206793918314e-05,
        -99.99999999999868,
        0.0,
        0.0,
        99.99999999999868,
        -1.629206793918314e-05,
        0.0,
        -2.6248111724853516,
        369.7171630859375,
        -78.77522277832031,
        1.0
      ],
      "name": "alien4"
    },
    {
      "mesh": 7,
      "name": "alien4_alien color_0"
    },
    {
      "children": [
        17
      ],
      "matrix": [
        100.0,
        0.0,
        0.0,
        0.0,
        -0.0,
        -1.629206793918314e-05,
        -99.99999999999868,
        0.0,
        0.0,
        99.99999999999868,
        -1.629206793918314e-05,
        0.0,
        -2.6248133182525635,
        318.4405212402344,
        -78.21002960205078,
        1.0
      ],
      "name": "alien5"
    },
    {
      "mesh": 8,
      "name": "alien5_alien color_0"
    },
    {
      "children": [
        19
      ],
      "matrix": [
        100.0,
        0.0,
        0.0,
        0.0,
        -0.0,
        -1.629206793918314e-05,
        -99.99999999999868,
        0.0,
        0.0,
        99.99999999999868,
        -1.629206793918314e-05,
        0.0,
        -2.6248114109039307,
        320.4991760253906,
        0.3086615204811096,
        1.0
      ],
      "name": "alien6"
    },
    {
      "mesh": 9,
      "name": "alien6_alien color_0"
    },
    {
      "children": [
        21
      ],
      "matrix": [
        114.12216186523438,
        0.0,
        0.0,
        0.0,
        -0.0,
        -1.859286014474854e-05,
        -114.12216186523287,
        0.0,
        0.0,
        114.12216186523287,
        -1.859286014474854e-05,
        0.0,
        -2.6248090267181396,
        374.20343017578125,
        0.5513161420822144,
        1.0
      ],
      "name": "alien7"
    },
    {
      "mesh": 10,
      "name": "alien7_alien color_0"
    },
    {
      "children": [
        23
      ],
      "matrix": [
        100.0,
        0.0,
        0.0,
        0.0,
        0.0,
        -1.629206793918314e-05,
        -99.99999999999868,
        0.0,
        0.0,
        99.99999999999868,
        -1.629206793918314e-05,
        0.0,
        0.46787261962890625,
        195.1709442138672,
        -4.995251655578613,
        1.0
      ],
      "name": "player"
    },
    {
      "mesh": 11,
      "name": "player_alien color_0"
    },
    {
      "children": [
        25
      ],
      "matrix": [
        100.0,
        0.0,
        0.0,
        0.0,
        -0.0,
        -1.629206793918314e-05,
        -99.99999999999868,
        0.0,
        0.0,
        99.99999999999868,
        -1.629206793918314e-05,
        0.0,
        -1.5925973653793335,
        243.73231506347656,
        0.5407634973526001,
        1.0
      ],
      "name": "bullet"
    },
    {
      "mesh": 12,
      "name": "bullet_alien color_0"
    }
  ],
  "samplers": [
    {
      "magFilter": 9729,
      "minFilter": 9987,
      "wrapS": 10497,
      "wrapT": 10497
    }
  ],
  "scene": 0,
  "scenes": [
    {
      "name": "Sketchfab_Scene",
      "nodes": [
        0
      ]
    }
  ],
  "textures": [
    {
      "sampler": 0,
      "source": 0
    },
    {
      "sampler": 0,
      "source": 1
    },
    {
      "sampler": 0,
      "source": 2
    },
    {
      "sampler": 0,
      "source": 3
    }
  ]
}
