<?xml version="1.0" encoding="utf-8" standalone="yes"?>
<!DOCTYPE svg PUBLIC "-//W3C//DTD SVG 1.1//EN" "http://www.w3.org/Graphics/SVG/1.1/DTD/svg11.dtd">
<svg width="734" height="458" viewBox="0 0 734 458" style="fill:none;stroke:none;fill-rule:evenodd;clip-rule:evenodd;stroke-linecap:round;stroke-linejoin:round;stroke-miterlimit:1.5;" version="1.1" xmlns="http://www.w3.org/2000/svg" xmlns:xlink="http://www.w3.org/1999/xlink"><style id="fontImports">@import url("https://fonts.googleapis.com/css2?family=Roboto:wght@400;700&amp;display=block");</style><g id="items" style="isolation: isolate"><g id="blend" style="mix-blend-mode: normal"><g id="g-root--1.cu_sy_18k31csf1134a-fill" data-item-order="-69690" transform="translate(327, 111)"></g><g id="g-root-2.line_sy_1449j8cf113wj-fill" data-item-order="-69683" transform="translate(243, 267)"></g><g id="g-root-1.line_sy_1449j8cf113wk-fill" data-item-order="-69677" transform="translate(243, 213)"></g><g id="g-root-tx_groupcha_18ml0v0f13x8j-fill" data-item-order="0" transform="translate(51, 201)"><g id="tx_groupcha_18ml0v0f13x8j-fill" stroke="none" fill="#f4f4f4"><g><text style="font: 20px Roboto, sans-serif; white-space: pre;" font-size="20px" font-family="Roboto, sans-serif"><tspan x="17.39" y="34" dominant-baseline="ideographic">Group Chats</tspan></text></g></g></g><g id="g-root-chat_925km4f0ybcy-fill" data-item-order="0" transform="translate(183, 189)"></g><g id="g-root-loca_v8mizgf114p9-fill" data-item-order="0" transform="translate(507, 231)"></g><g id="g-root-tx_tripplan_zpp2fwf13vv2-fill" data-item-order="0" transform="translate(567, 243)"><g id="tx_tripplan_zpp2fwf13vv2-fill" stroke="none" fill="#f4f4f4"><g><text style="font: 20px Roboto, sans-serif; white-space: pre;" font-size="20px" font-family="Roboto, sans-serif"><tspan x="12" y="34" dominant-baseline="ideographic">Trip Planning</tspan></text></g></g></g><g id="g-root-tx_messagin_7rijgf13xfl-fill" data-item-order="0" transform="translate(15, 285)"><g id="tx_messagin_7rijgf13xfl-fill" stroke="none" fill="#f4f4f4"><g><text style="font: 20px Roboto, sans-serif; white-space: pre;" font-size="20px" font-family="Roboto, sans-serif"><tspan x="15.25" y="34" dominant-baseline="ideographic">Messaging Apps</tspan></text></g></g></g><g id="g-root-2_5w3a4f0ohzf-fill" data-item-order="0" transform="translate(183, 273)"></g><g id="g-root--1.cu_sy_18k31csf1134a-stroke" data-item-order="-69690" transform="translate(327, 111)"><g id="-1.cu_sy_18k31csf1134a-stroke" fill="none" stroke-linecap="round" stroke-linejoin="round" stroke-miterlimit="4" stroke="#f4f4f4" stroke-width="2"><g><path d="M 65.766602 298C 80.754802 298 106.000002 233.529 106.000002 154C 106.000002 74.471 80.754802 10 65.766602 10C 80.775202 10.0075 92.941702 74.6668 92.941702 154C 92.941702 233.3332 80.775202 297.9925 65.766602 298ZM 65.765897 298C 80.774597 297.9925 92.941097 233.3332 92.941097 154C 92.941097 74.6668 80.774597 10.0075 65.765897 10L 51.957397 10C 66.060697 15.1659 77.199297 77.8539 77.199297 154C 77.199297 230.1462 65.382597 292.8341 51.279297 298L 65.765897 298ZM 77.2 154C 77.2 230.1462 65.3833 292.8341 51.28 298L 50.0615 298C 35.0734 298 10 233.529 10 154C 10 74.471 35.0734 10 50.0615 10C 50.6991 10 51.9581 10 51.9581 10C 66.0614 15.1659 77.2 77.8539 77.2 154Z"></path></g></g></g><g id="g-root-2.line_sy_1449j8cf113wj-stroke" data-item-order="-69683" transform="translate(243, 267)"><g id="2.line_sy_1449j8cf113wj-stroke" fill="none" stroke-linecap="round" stroke-linejoin="round" stroke-miterlimit="4" stroke="#1ac3fb" stroke-width="2"><g><path d="M 250.06 10.47998L 130 39.99998L 10 39.99998"></path><path d="M 245.8 18.17998L 250.5 10.37998L 242.7 5.57998" stroke-dasharray="none"></path></g></g></g><g id="g-root-1.line_sy_1449j8cf113wk-stroke" data-item-order="-69677" transform="translate(243, 213)"><g id="1.line_sy_1449j8cf113wk-stroke" fill="none" stroke-linecap="round" stroke-linejoin="round" stroke-miterlimit="4" stroke="#43dd93" stroke-width="2"><g><path d="M 250.06 39.52L 130 10L 10 10"></path><path d="M 242.7 44.4L 250.5 39.6L 245.8 31.8" stroke-dasharray="none"></path></g></g></g><g id="g-root-tx_groupcha_18ml0v0f13x8j-stroke" data-item-order="0" transform="translate(51, 201)"></g><g id="g-root-chat_925km4f0ybcy-stroke" data-item-order="0" transform="translate(183, 189)"><g id="chat_925km4f0ybcy-stroke" fill="none" stroke-linecap="round" stroke-linejoin="round" stroke-miterlimit="4" stroke="#43dd93" stroke-width="2"><g><path d="M 55 37L 39 37C 37.895432 37 37 37.895432 37 39L 37 51C 37 52.104568 37.895432 53 39 53L 41 53L 41 57L 47 53L 55 53C 56.104568 53 57 52.104568 57 51L 57 39C 57 37.895432 56.104568 37 55 37ZM 10 10M 43 43L 51 43M 10 10M 43 47L 49 47M 31 37L 11 37C 11.019445 35.143372 11.403379 33.308643 12.13 31.6C 12.93 30 16.256001 28.9 20.436001 27.351999C 21.566 26.934 21.380001 23.984001 20.880001 23.431999C 19.268551 21.685833 18.479071 19.334854 18.709999 16.969999C 18.565205 15.46426 19.052738 13.966075 20.055944 12.833911C 21.059151 11.701747 22.487778 11.037463 24 11C 25.512222 11.037463 26.940847 11.701747 27.944054 12.833911C 28.947262 13.966075 29.434793 15.46426 29.289999 16.969999C 29.521515 19.335524 28.731993 21.687351 27.119999 23.433998C 26.620001 23.986 26.434 26.936001 27.563999 27.354C 32.080002 29.028 35.599998 30.181999 36.012001 32M 31.823999 11.474C 32.506039 11.159061 33.248764 10.997273 34 11C 35.512222 11.037463 36.940849 11.701747 37.944054 12.833911C 38.947262 13.966075 39.434792 15.46426 39.290001 16.969999C 39.521515 19.335524 38.731995 21.687351 37.119999 23.433998C 36.620003 23.986 36.433998 26.936001 37.563999 27.354C 41.743999 28.902 45.071999 30.007999 45.869999 31.601999C 45.933998 31.728001 45.993999 31.858 46.049999 31.99"></path></g></g></g><g id="g-root-loca_v8mizgf114p9-stroke" data-item-order="0" transform="translate(507, 231)"><g id="loca_v8mizgf114p9-stroke" fill="none" stroke-linecap="round" stroke-linejoin="round" stroke-miterlimit="4" stroke="#f4f4f4" stroke-width="2"><g><path d="M 57 45C 57 49.105999 51.599998 54.560001 49.675999 56.380001C 49.493999 56.554001 49.251801 56.651199 49 56.651199C 48.748199 56.651199 48.506001 56.554001 48.324001 56.380001C 46.400002 54.560001 41 49.105999 41 45C 41 42.878201 41.8428 40.843399 43.343201 39.343201C 44.843399 37.8428 46.878201 37 49 37C 51.121799 37 53.156601 37.8428 54.656799 39.343201C 56.1572 40.843399 57 42.878201 57 45L 57 45ZM 11 41C 11 37.817398 12.26428 34.765198 14.51472 32.514801C 16.76516 30.2642 19.8174 29 23 29C 26.1826 29 29.23484 30.2642 31.485201 32.514801C 33.735802 34.765198 35 37.817398 35 41L 11 41ZM 23 26C 27.142139 26 30.5 22.642139 30.5 18.5C 30.5 14.357861 27.142139 11 23 11C 18.857861 11 15.5 14.357861 15.5 18.5C 15.5 22.642139 18.857861 26 23 26ZM 42 26C 46.1422 26 49.5 22.642139 49.5 18.5C 49.5 14.357861 46.1422 11 42 11C 37.8578 11 34.5 14.357861 34.5 18.5C 34.5 22.642139 37.8578 26 42 26ZM 49.981998 32.0396C 48.098801 30.360001 45.734001 29.31678 43.223801 29.05826C 40.713799 28.799761 38.186001 29.339121 36 30.5996M 49 45.5C 48.723801 45.5 48.5 45.276199 48.5 45C 48.5 44.723801 48.723801 44.5 49 44.5M 49 45.5C 49.276199 45.5 49.5 45.276199 49.5 45C 49.5 44.723801 49.276199 44.5 49 44.5"></path></g></g></g><g id="g-root-tx_tripplan_zpp2fwf13vv2-stroke" data-item-order="0" transform="translate(567, 243)"></g><g id="g-root-tx_messagin_7rijgf13xfl-stroke" data-item-order="0" transform="translate(15, 285)"></g><g id="g-root-2_5w3a4f0ohzf-stroke" data-item-order="0" transform="translate(183, 273)"><g id="2_5w3a4f0ohzf-stroke" fill="none" stroke-linecap="round" stroke-linejoin="round" stroke-miterlimit="4" stroke="#1ac3fb" stroke-width="2"><g><path d="M 25.903999 31.872C 25.906704 29.474295 27.139893 27.245798 29.17 25.969999C 26.240326 24.099497 22.38187 24.662067 20.108253 27.291222C 17.834635 29.920374 17.834635 33.819626 20.108253 36.448784C 22.38187 39.077934 26.240326 39.640503 29.17 37.77C 27.141094 36.494957 25.908077 34.26828 25.903999 31.872ZM 36.667999 46.714001L 11 46.714001M 24.304001 51.139999C 24.580143 51.139999 24.804001 51.363857 24.804001 51.639999L 24.804001 51.639999C 24.804001 51.916142 24.580143 52.139999 24.304001 52.139999L 24.304001 52.139999C 24.027859 52.139999 23.804001 51.916142 23.804001 51.639999L 23.804001 51.639999C 23.804001 51.363857 24.027859 51.139999 24.304001 51.139999M 36.667999 37.956001L 36.667999 53C 36.667999 55.209141 34.877136 57 32.667999 57L 15 57C 12.790861 57 11 55.209141 11 53L 11 18.672001C 11 16.46286 12.790861 14.672 15 14.672L 29.378 14.672M 54.902 11L 36.162003 11C 35.002983 10.999999 34.063103 11.938983 34.061996 13.098L 34.062 23.6C 34.062 24.759476 35.002525 25.699106 36.162003 25.698002L 40.260002 25.698L 40.260002 31.396L 47.599998 25.689999L 54.896 25.689999C 56.053917 25.693321 56.99559 24.757914 57 23.6L 57 13.098C 57 11.939306 56.060696 11 54.902 11ZM 39.426003 18.582001C 39.426003 18.858143 39.649857 19.082001 39.926003 19.082001C 40.202141 19.082001 40.426003 18.858143 40.426003 18.582001C 40.426003 18.305859 40.202141 18.082001 39.926003 18.082001C 39.649857 18.082001 39.426003 18.305859 39.426003 18.582001M 45.032001 18.582001C 45.032001 18.858143 45.255859 19.082001 45.532001 19.082001C 45.808144 19.082001 46.032001 18.858143 46.032001 18.582001C 46.032001 18.305859 45.808144 18.082001 45.532001 18.082001C 45.255859 18.082001 45.032001 18.305859 45.032001 18.582001M 50.636002 18.582001C 50.636002 18.858143 50.859859 19.082001 51.136002 19.082001C 51.412144 19.082001 51.636002 18.858143 51.636002 18.582001C 51.636002 18.305859 51.412144 18.082001 51.136002 18.082001C 50.859859 18.082001 50.636002 18.305859 50.636002 18.582001"></path></g></g></g></g></g></svg>