{
  "accessors": [
    {
      "bufferView": 2,
      "componentType": 5126,
      "count": 16077,
      "max": [
        293.41217041015625,
        187.4724578857422,
        245.78599548339844
      ],
      "min": [
        -293.380859375,
        -214.896484375,
        -466.62603759765625
      ],
      "type": "VEC3"
    },
    {
      "bufferView": 2,
      "byteOffset": 192924,
      "componentType": 5126,
      "count": 16077,
      "type": "VEC3"
    },
    {
      "bufferView": 1,
      "componentType": 5126,
      "count": 16077,
      "type": "VEC2"
    },
    {
      "bufferView": 0,
      "componentType": 5125,
      "count": 43842,
      "type": "SCALAR"
    },
    {
      "bufferView": 2,
      "byteOffset": 385848,
      "componentType": 5126,
      "count": 432,
      "max": [
        263.58251953125,
        80.00067901611328,
        238.9434051513672
      ],
      "min": [
        -263.5513000488281,
        -162.6115264892578,
        -299.4511413574219
      ],
      "type": "VEC3"
    },
    {
      "bufferView": 2,
      "byteOffset": 391032,
      "componentType": 5126,
      "count": 432,
      "type": "VEC3"
    },
    {
      "bufferView": 1,
      "byteOffset": 128616,
      "componentType": 5126,
      "count": 432,
      "type": "VEC2"
    },
    {
      "bufferView": 0,
      "byteOffset": 175368,
      "componentType": 5125,
      "count": 810,
      "type": "SCALAR"
    },
    {
      "bufferView": 2,
      "byteOffset": 396216,
      "componentType": 5126,
      "count": 6070,
      "max": [
        270.369873046875,
        187.44053649902344,
        327.4546813964844
      ],
      "min": [
        -270.338623046875,
        -203.29635620117188,
        -462.31561279296875
      ],
      "type": "VEC3"
    },
    {
      "bufferView": 2,
      "byteOffset": 469056,
      "componentType": 5126,
      "count": 6070,
      "type": "VEC3"
    },
    {
      "bufferView": 1,
      "byteOffset": 132072,
      "componentType": 5126,
      "count": 6070,
      "type": "VEC2"
    },
    {
      "bufferView": 0,
      "byteOffset": 178608,
      "componentType": 5125,
      "count": 13578,
      "type": "SCALAR"
    },
    {
      "bufferView": 2,
      "byteOffset": 541896,
      "componentType": 5126,
      "count": 10167,
      "max": [
        267.1187744140625,
        218.29486083984375,
        271.8888244628906
      ],
      "min": [
        -267.0875549316406,
        -208.00559997558594,
        -497.9934997558594
      ],
      "type": "VEC3"
    },
    {
      "bufferView": 2,
      "byteOffset": 663900,
      "componentType": 5126,
      "count": 10167,
      "type": "VEC3"
    },
    {
      "bufferView": 1,
      "byteOffset": 180632,
      "componentType": 5126,
      "count": 10167,
      "type": "VEC2"
    },
    {
      "bufferView": 0,
      "byteOffset": 232920,
      "componentType": 5125,
      "count": 17262,
      "type": "SCALAR"
    },
    {
      "bufferView": 2,
      "byteOffset": 785904,
      "componentType": 5126,
      "count": 104,
      "max": [
        200.49867248535156,
        193.9881591796875,
        283.877685546875
      ],
      "min": [
        -200.49868774414063,
        -105.5933837890625,
        -367.5386657714844
      ],
      "type": "VEC3"
    },
    {
      "bufferView": 2,
      "byteOffset": 787152,
      "componentType": 5126,
      "count": 104,
      "type": "VEC3"
    },
    {
      "bufferView": 1,
      "byteOffset": 261968,
      "componentType": 5126,
      "count": 104,
      "type": "VEC2"
    },
    {
      "bufferView": 0,
      "byteOffset": 301968,
      "componentType": 5125,
      "count": 144,
      "type": "SCALAR"
    },
    {
      "bufferView": 2,
      "byteOffset": 788400,
      "componentType": 5126,
      "count": 156,
      "max": [
        181.41403198242188,
        162.21478271484375,
        179.20143127441406
      ],
      "min": [
        -187.36648559570313,
        -47.59539794921875,
        34.169498443603516
      ],
      "type": "VEC3"
    },
    {
      "bufferView": 2,
      "byteOffset": 790272,
      "componentType": 5126,
      "count": 156,
      "type": "VEC3"
    },
    {
      "bufferView": 1,
      "byteOffset": 262800,
      "componentType": 5126,
      "count": 156,
      "type": "VEC2"
    },
    {
      "bufferView": 0,
      "byteOffset": 302544,
      "componentType": 5125,
      "count": 420,
      "type": "SCALAR"
    },
    {
      "bufferView": 2,
      "byteOffset": 792144,
      "componentType": 5126,
      "count": 162,
      "max": [
        147.54124450683594,
        109.6368637084961,
        115.37449645996094
      ],
      "min": [
        -147.54196166992188,
        91.59066009521484,
        -301.7503967285156
      ],
      "type": "VEC3"
    },
    {
      "bufferView": 2,
      "byteOffset": 794088,
      "componentType": 5126,
      "count": 162,
      "type": "VEC3"
    },
    {
      "bufferView": 1,
      "byteOffset": 264048,
      "componentType": 5126,
      "count": 162,
      "type": "VEC2"
    },
    {
      "bufferView": 0,
      "byteOffset": 304224,
      "componentType": 5125,
      "count": 168,
      "type": "SCALAR"
    },
    {
      "bufferView": 2,
      "byteOffset": 796032,
      "componentType": 5126,
      "count": 1609,
      "max": [
        139.06655883789063,
        233.45037841796875,
        283.877685546875
      ],
      "min": [
        -133.0254364013672,
        -27.76754379272461,
        -62.27330017089844
      ],
      "type": "VEC3"
    },
    {
      "bufferView": 2,
      "byteOffset": 815340,
      "componentType": 5126,
      "count": 1609,
      "type": "VEC3"
    },
    {
      "bufferView": 1,
      "byteOffset": 265344,
      "componentType": 5126,
      "count": 1609,
      "type": "VEC2"
    },
    {
      "bufferView": 0,
      "byteOffset": 304896,
      "componentType": 5125,
      "count": 1764,
      "type": "SCALAR"
    },
    {
      "bufferView": 2,
      "byteOffset": 834648,
      "componentType": 5126,
      "count": 8,
      "max": [
        139.06655883789063,
        154.62435913085938,
        251.45620727539063
      ],
      "min": [
        -133.0254364013672,
        36.54174041748047,
        221.54441833496094
      ],
      "type": "VEC3"
    },
    {
      "bufferView": 2,
      "byteOffset": 834744,
      "componentType": 5126,
      "count": 8,
      "type": "VEC3"
    },
    {
      "bufferView": 1,
      "byteOffset": 278216,
      "componentType": 5126,
      "count": 8,
      "type": "VEC2"
    },
    {
      "bufferView": 0,
      "byteOffset": 311952,
      "componentType": 5125,
      "count": 12,
      "type": "SCALAR"
    },
    {
      "bufferView": 2,
      "byteOffset": 834840,
      "componentType": 5126,
      "count": 8,
      "max": [
        121.67169189453125,
        195.369384765625,
        271.4703369140625
      ],
      "min": [
        -115.631103515625,
        155.52354431152344,
        271.4703369140625
      ],
      "type": "VEC3"
    },
    {
      "bufferView": 2,
      "byteOffset": 834936,
      "componentType": 5126,
      "count": 8,
      "type": "VEC3"
    },
    {
      "bufferView": 1,
      "byteOffset": 278280,
      "componentType": 5126,
      "count": 8,
      "type": "VEC2"
    },
    {
      "bufferView": 0,
      "byteOffset": 312000,
      "componentType": 5125,
      "count": 12,
      "type": "SCALAR"
    },
    {
      "bufferView": 2,
      "byteOffset": 835032,
      "componentType": 5126,
      "count": 1274,
      "max": [
        127.16747283935547,
        118.25151824951172,
        249.45567321777344
      ],
      "min": [
        -127.1937026977539,
        -156.44149780273438,
        -487.21246337890625
      ],
      "type": "VEC3"
    },
    {
      "bufferView": 2,
      "byteOffset": 850320,
      "componentType": 5126,
      "count": 1274,
      "type": "VEC3"
    },
    {
      "bufferView": 1,
      "byteOffset": 278344,
      "componentType": 5126,
      "count": 1274,
      "type": "VEC2"
    },
    {
      "bufferView": 0,
      "byteOffset": 312048,
      "componentType": 5125,
      "count": 1956,
      "type": "SCALAR"
    },
    {
      "bufferView": 2,
      "byteOffset": 865608,
      "componentType": 5126,
      "count": 56,
      "max": [
        151.8849639892578,
        10.055583953857422,
        -282.90899658203125
      ],
      "min": [
        -151.88491821289063,
        -23.36313819885254,
        -317.18609619140625
      ],
      "type": "VEC3"
    },
    {
      "bufferView": 2,
      "byteOffset": 866280,
      "componentType": 5126,
      "count": 56,
      "type": "VEC3"
    },
    {
      "bufferView": 1,
      "byteOffset": 288536,
      "componentType": 5126,
      "count": 56,
      "type": "VEC2"
    },
    {
      "bufferView": 0,
      "byteOffset": 319872,
      "componentType": 5125,
      "count": 144,
      "type": "SCALAR"
    },
    {
      "bufferView": 2,
      "byteOffset": 866952,
      "componentType": 5126,
      "count": 29,
      "max": [
        17.65687370300293,
        -28.847877502441406,
        233.9034423828125
      ],
      "min": [
        -17.65668487548828,
        -44.20878219604492,
        185.19656372070313
      ],
      "type": "VEC3"
    },
    {
      "bufferView": 2,
      "byteOffset": 867300,
      "componentType": 5126,
      "count": 29,
      "type": "VEC3"
    },
    {
      "bufferView": 1,
      "byteOffset": 288984,
      "componentType": 5126,
      "count": 29,
      "type": "VEC2"
    },
    {
      "bufferView": 0,
      "byteOffset": 320448,
      "componentType": 5125,
      "count": 90,
      "type": "SCALAR"
    }
  ],
  "asset": {
    "generator": "fab-model-conversion",
    "version": "2.0"
  },
  "bufferViews": [
    {
      "buffer": 0,
      "byteLength": 320808,
      "target": 34963
    },
    {
      "buffer": 0,
      "byteLength": 289216,
      "byteOffset": 320808,
      "byteStride": 8,
      "target": 34962
    },
    {
      "buffer": 0,
      "byteLength": 867648,
      "byteOffset": 610024,
      "byteStride": 12,
      "target": 34962
    }
  ],
  "buffers": [
    {
      "byteLength": 1477672,
      "uri": "scene.bin"
    }
  ],
  "extensionsUsed": [
    "KHR_materials_clearcoat",
    "KHR_materials_specular"
  ],
  "materials": [
    {
      "doubleSided": true,
      "extensions": {
        "KHR_materials_clearcoat": {
          "clearcoatFactor": 1,
          "clearcoatRoughnessFactor": 0.04
        }
      },
      "name": "Material_2106",
      "pbrMetallicRoughness": {
        "baseColorFactor": [
          0.705882,
          0.705882,
          0.705882,
          1.0
        ],
        "metallicFactor": 0.18464176829268292,
        "roughnessFactor": 0.8929713596497552
      }
    },
    {
      "doubleSided": true,
      "name": "Material_77",
      "pbrMetallicRoughness": {
        "baseColorFactor": [
          0.12554694619288637,
          0.12554694619288637,
          0.12554694619288637,
          1.0
        ],
        "metallicFactor": 0.0,
        "roughnessFactor": 0.8929713596497552
      }
    },
    {
      "doubleSided": true,
      "extensions": {
        "KHR_materials_specular": {
          "specularFactor": 0.4773246951219512
        }
      },
      "name": "10_-_Default",
      "pbrMetallicRoughness": {
        "baseColorFactor": [
          0.898039,
          0.568627,
          0.0,
          1.0
        ],
        "roughnessFactor": 0.8704960068752181
      }
    },
    {
      "doubleSided": true,
      "extensions": {
        "KHR_materials_specular": {
          "specularFactor": 0.18464176829268292
        }
      },
      "name": "MetalBlack",
      "pbrMetallicRoughness": {
        "baseColorFactor": [
          0.027606939338488443,
          0.027606939338488443,
          0.027606939338488443,
          1.0
        ],
        "metallicFactor": 0.0,
        "roughnessFactor": 0.8612010517801294
      }
    },
    {
      "doubleSided": true,
      "name": "Material_71",
      "pbrMetallicRoughness": {
        "baseColorFactor": [
          0.0,
          0.0,
          0.0,
          1.0
        ],
        "metallicFactor": 0.0,
        "roughnessFactor": 0.8929713596497552
      }
    },
    {
      "doubleSided": true,
      "extensions": {
        "KHR_materials_specular": {
          "specularFactor": 0.5870807926829268
        }
      },
      "name": "Material_63",
      "pbrMetallicRoughness": {
        "baseColorFactor": [
          1.0,
          0.0,
          0.0,
          1.0
        ],
        "metallicFactor": 0.5931783536585366,
        "roughnessFactor": 0.8929713596497552
      }
    },
    {
      "doubleSided": true,
      "name": "Material_73",
      "pbrMetallicRoughness": {
        "baseColorFactor": [
          0.0046469190529400605,
          0.0046469190529400605,
          0.0046469190529400605,
          1.0
        ],
        "metallicFactor": 0.0,
        "roughnessFactor": 0.8929713596497552
      }
    },
    {
      "doubleSided": true,
      "extensions": {
        "KHR_materials_specular": {
          "specularFactor": 0.5261051829268293
        }
      },
      "name": "Material_59",
      "pbrMetallicRoughness": {
        "baseColorFactor": [
          0.588,
          0.588,
          0.588,
          1.0
        ],
        "metallicFactor": 0.0,
        "roughnessFactor": 0.8929713596497552
      }
    },
    {
      "doubleSided": true,
      "name": "Material_69",
      "pbrMetallicRoughness": {
        "baseColorFactor": [
          0.588,
          0.588,
          0.588,
          1.0
        ],
        "metallicFactor": 0.0,
        "roughnessFactor": 0.8929713596497552
      }
    },
    {
      "doubleSided": true,
      "name": "Material_61",
      "pbrMetallicRoughness": {
        "baseColorFactor": [
          0.588,
          0.588,
          0.588,
          1.0
        ],
        "metallicFactor": 0.0,
        "roughnessFactor": 0.8929713596497552
      }
    },
    {
      "doubleSided": true,
      "extensions": {
        "KHR_materials_clearcoat": {
          "clearcoatFactor": 1,
          "clearcoatRoughnessFactor": 0.04
        }
      },
      "name": "Material_2210",
      "pbrMetallicRoughness": {
        "baseColorFactor": [
          0.533333,
          0.0,
          0.0,
          1.0
        ],
        "metallicFactor": 0.0,
        "roughnessFactor": 0.8815030741487437
      }
    },
    {
      "doubleSided": true,
      "name": "Material_2212",
      "pbrMetallicRoughness": {
        "baseColorFactor": [
          0.0,
          0.0,
          0.0,
          1.0
        ],
        "metallicFactor": 0.0,
        "roughnessFactor": 0.8929713596497552
      }
    },
    {
      "doubleSided": true,
      "emissiveFactor": [
        0.533333,
        0.533333,
        0.533333
      ],
      "name": "Material_59_0",
      "pbrMetallicRoughness": {
        "baseColorFactor": [
          0.588,
          0.588,
          0.588,
          1.0
        ],
        "metallicFactor": 0.0,
        "roughnessFactor": 0.9001386909610581
      }
    }
  ],
  "meshes": [
    {
      "name": "ACS_Material #2106_0",
      "primitives": [
        {
          "attributes": {
            "NORMAL": 1,
            "POSITION": 0,
            "TEXCOORD_0": 2
          },
          "indices": 3,
          "material": 0,
          "mode": 4
        }
      ]
    },
    {
      "name": "ACS_Material #77_0",
      "primitives": [
        {
          "attributes": {
            "NORMAL": 5,
            "POSITION": 4,
            "TEXCOORD_0": 6
          },
          "indices": 7,
          "material": 1,
          "mode": 4
        }
      ]
    },
    {
      "name": "ACS_10 - Default_0",
      "primitives": [
        {
          "attributes": {
            "NORMAL": 9,
            "POSITION": 8,
            "TEXCOORD_0": 10
          },
          "indices": 11,
          "material": 2,
          "mode": 4
        }
      ]
    },
    {
      "name": "ACS_MetalBlack_0",
      "primitives": [
        {
          "attributes": {
            "NORMAL": 13,
            "POSITION": 12,
            "TEXCOORD_0": 14
          },
          "indices": 15,
          "material": 3,
          "mode": 4
        }
      ]
    },
    {
      "name": "ACS_Material #71_0",
      "primitives": [
        {
          "attributes": {
            "NORMAL": 17,
            "POSITION": 16,
            "TEXCOORD_0": 18
          },
          "indices": 19,
          "material": 4,
          "mode": 4
        }
      ]
    },
    {
      "name": "ACS_Material #63_0",
      "primitives": [
        {
          "attributes": {
            "NORMAL": 21,
            "POSITION": 20,
            "TEXCOORD_0": 22
          },
          "indices": 23,
          "material": 5,
          "mode": 4
        }
      ]
    },
    {
      "name": "ACS_Material #73_0",
      "primitives": [
        {
          "attributes": {
            "NORMAL": 25,
            "POSITION": 24,
            "TEXCOORD_0": 26
          },
          "indices": 27,
          "material": 6,
          "mode": 4
        }
      ]
    },
    {
      "name": "ACS_Material #59_0",
      "primitives": [
        {
          "attributes": {
            "NORMAL": 29,
            "POSITION": 28,
            "TEXCOORD_0": 30
          },
          "indices": 31,
          "material": 7,
          "mode": 4
        }
      ]
    },
    {
      "name": "ACS_Material #69_0",
      "primitives": [
        {
          "attributes": {
            "NORMAL": 33,
            "POSITION": 32,
            "TEXCOORD_0": 34
          },
          "indices": 35,
          "material": 8,
          "mode": 4
        }
      ]
    },
    {
      "name": "ACS_Material #61_0",
      "primitives": [
        {
          "attributes": {
            "NORMAL": 37,
            "POSITION": 36,
            "TEXCOORD_0": 38
          },
          "indices": 39,
          "material": 9,
          "mode": 4
        }
      ]
    },
    {
      "name": "ACS_Material #2210_0",
      "primitives": [
        {
          "attributes": {
            "NORMAL": 41,
            "POSITION": 40,
            "TEXCOORD_0": 42
          },
          "indices": 43,
          "material": 10,
          "mode": 4
        }
      ]
    },
    {
      "name": "ACS_Material #2212_0",
      "primitives": [
        {
          "attributes": {
            "NORMAL": 45,
            "POSITION": 44,
            "TEXCOORD_0": 46
          },
          "indices": 47,
          "material": 11,
          "mode": 4
        }
      ]
    },
    {
      "name": "ACS_Material #59_0",
      "primitives": [
        {
          "attributes": {
            "NORMAL": 49,
            "POSITION": 48,
            "TEXCOORD_0": 50
          },
          "indices": 51,
          "material": 12,
          "mode": 4
        }
      ]
    }
  ],
  "nodes": [
    {
      "children": [
        1
      ],
      "matrix": [
        1.0,
        0.0,
        0.0,
        0.0,
        0.0,
        2.220446049250313e-16,
        -1.0,
        0.0,
        0.0,
        1.0,
        2.220446049250313e-16,
        0.0,
        0.0,
        0.0,
        0.0,
        1.0
      ],
      "name": "FAB converted model"
    },
    {
      "children": [
        2
      ],
      "matrix": [
        1.0,
        0.0,
        0.0,
        0.0,
        0.0,
        0.0,
        1.0,
        0.0,
        0.0,
        -1.0,
        0.0,
        0.0,
        0.0,
        0.0,
        0.0,
        1.0
      ],
      "name": "02f4f50068ca43728b67b1a2f908d455.fbx"
    },
    {
      "children": [
        3
      ],
      "name": "RootNode"
    },
    {
      "children": [
        4,
        5,
        6,
        7,
        8,
        9,
        10,
        11,
        12,
        13,
        14,
        15,
        16
      ],
      "matrix": [
        -0.5088936090441096,
        5.684341891765169e-14,
        1.6960835864571364e-06,
        -0.0,
        -1.6960837851125068e-06,
        6.70552252422337e-08,
        -0.50889366864875,
        -0.0,
        2.8033077455287023e-13,
        0.5088937282562211,
        6.705523309613939e-08,
        -0.0,
        0.0,
        246.31222534179688,
        0.0,
        1.0
      ],
      "name": "ACS"
    },
    {
      "mesh": 0,
      "name": "ACS_Material #2106_0"
    },
    {
      "mesh": 1,
      "name": "ACS_Material #77_0"
    },
    {
      "mesh": 2,
      "name": "ACS_10 - Default_0"
    },
    {
      "mesh": 3,
      "name": "ACS_MetalBlack_0"
    },
    {
      "mesh": 4,
      "name": "ACS_Material #71_0"
    },
    {
      "mesh": 5,
      "name": "ACS_Material #63_0"
    },
    {
      "mesh": 6,
      "name": "ACS_Material #73_0"
    },
    {
      "mesh": 7,
      "name": "ACS_Material #59_0"
    },
    {
      "mesh": 8,
      "name": "ACS_Material #69_0"
    },
    {
      "mesh": 9,
      "name": "ACS_Material #61_0"
    },
    {
      "mesh": 10,
      "name": "ACS_Material #2210_0"
    },
    {
      "mesh": 11,
      "name": "ACS_Material #2212_0"
    },
    {
      "mesh": 12,
      "name": "ACS_Material #59_0"
    }
  ],
  "scene": 0,
  "scenes": [
    {
      "name": "FAB converted",
      "nodes": [
        0
      ]
    }
  ]
}
